HIERARCHY
ROOT Hips
{
	OFFSET 0.000000 0.000000 0.000000
	CHANNELS 6 Xposition Yposition Zposition Zrotation Yrotation Xrotation 
	JOINT LHipJoint
	{
		OFFSET 0.000000 0.000000 0.000000
		CHANNELS 3 Zrotation Yrotation Xrotation
		JOINT LeftUpLeg
		{
			OFFSET 1.363060 -1.794630 0.839290
			CHANNELS 3 Zrotation Yrotation Xrotation
			JOINT LeftLeg
			{
				OFFSET 2.448110 -6.726130 0.000000
				CHANNELS 3 Zrotation Yrotation Xrotation
				JOINT LeftFoot
				{
					OFFSET 2.562200 -7.039590 0.000000
					CHANNELS 3 Zrotation Yrotation Xrotation
					JOINT LeftToeBase
					{
						OFFSET 0.157640 -0.433110 2.322550
						CHANNELS 3 Zrotation Yrotation Xrotation
						End Site
						{
							OFFSET 0.000000 0.000000 0.000000
						}
					}
				}
			}
		}
	}
	JOINT RHipJoint
	{
		OFFSET 0.000000 0.000000 0.000000
		CHANNELS 3 Zrotation Yrotation Xrotation
		JOINT RightUpLeg
		{
			OFFSET -1.305520 -1.794630 0.839290
			CHANNELS 3 Zrotation Yrotation Xrotation
			JOINT RightLeg
			{
				OFFSET -2.542530 -6.985550 0.000000
				CHANNELS 3 Zrotation Yrotation Xrotation
				JOINT RightFoot
				{
					OFFSET -2.568260 -7.056230 0.000000
					CHANNELS 3 Zrotation Yrotation Xrotation
					JOINT RightToeBase
					{
						OFFSET -0.164730 -0.452590 2.363150
						CHANNELS 3 Zrotation Yrotation Xrotation
						End Site
						{
							OFFSET 0.000000 0.000000 0.000000
						}
					}
				}
			}
		}
	}
}
MOTION
Frames: 31
Frame Time: 0.008333
7.247751 16.988619 0.841664 18.349892 62.042960 34.804654 -11.250610 6.235710 0.397762 -13.693123 17.493981 -5.195523 -2.411215 1.116102 18.679163 0.000623 -4.430705 16.423032 -1.554200 0.000000 -82.758200 7.920732 -1.593432 4.655252 18.983754 1.998204 -33.539640 3.427693 1.975089 6.240317 -2.257262 -6.354073 -12.157907 -0.009700 0.000000 -0.676000
7.442108 16.947951 0.932984 18.520483 61.574885 35.136881 -11.346264 6.293943 0.532088 -13.521636 17.208165 -5.905079 -2.257305 1.256426 20.782283 0.009347 -5.930581 17.771373 -2.253000 0.000000 -83.806099 7.874015 -1.620476 4.833807 18.614078 2.820557 -34.118151 3.261765 1.754869 8.437693 -2.557985 -6.991996 -13.700797 -179.737100 0.000000 -6.847100
7.634139 16.911615 1.023188 18.585719 61.129551 35.324294 -11.466113 6.334778 0.650931 -13.236883 17.025051 -6.701735 -2.085894 1.386857 23.018592 0.042023 -7.476950 19.177250 -3.042600 0.000000 -83.931900 7.838718 -1.659706 4.934322 18.297801 3.431840 -34.827843 3.110548 1.446642 11.186043 -2.790314 -7.364056 -15.181979 -179.449901 0.000000 -12.187399
7.822234 16.879962 1.112292 18.538535 60.711800 35.329847 -11.601114 6.354087 0.735620 -12.826205 16.967314 -7.530165 -1.900308 1.505556 25.358407 0.101268 -8.914781 20.569975 -3.856200 0.000000 -83.079600 7.818495 -1.701735 4.947403 18.062348 3.802256 -35.511400 2.978751 1.090246 14.210950 -2.942031 -7.468489 -16.561970 -179.173000 0.000001 -15.753100
8.005124 16.853259 1.200841 18.385901 60.323160 35.149889 -11.739932 6.349154 0.775486 -12.297808 17.031394 -8.358571 -1.705518 1.612747 27.773759 0.184602 -10.068295 21.876184 -4.598500 0.000000 -81.296100 7.813817 -1.741358 4.877027 17.923403 3.926363 -36.044086 2.872858 0.727276 17.237565 -3.012871 -7.324756 -17.825605 -178.925899 0.000000 -18.007700
8.182020 16.831733 1.289490 18.124188 59.962848 34.787997 -11.874244 6.317435 0.764397 -11.660623 17.200944 -9.177818 -1.506490 1.710748 30.242677 0.286381 -10.773083 23.022091 -5.160901 0.000000 -78.710500 7.818437 -1.778148 4.740074 17.889703 3.842730 -36.328670 2.798038 0.395317 20.012538 -3.017614 -6.991310 -18.965608 -178.720500 -0.000000 -19.311101
8.352391 16.815341 1.379152 17.764123 59.626853 34.271587 -11.995619 6.257351 0.704004 -10.938442 17.440074 -9.991135 -1.307417 1.802906 32.743058 0.400440 -10.893141 23.943767 -5.439200 -0.000001 -75.498001 7.825931 -1.813657 4.556271 17.957630 3.600589 -36.319162 2.757177 0.118410 22.365366 -2.976984 -6.530554 -19.994420 -178.558999 0.000000 -19.965400
8.516077 16.803785 1.470915 17.325273 59.309308 33.643041 -12.097414 6.167767 0.602240 -10.161929 17.700273 -10.811045 -1.111517 1.892425 35.251325 0.522575 -10.345775 24.588570 -5.357600 -0.000000 -71.866600 7.830955 -1.849094 4.346623 18.112020 3.260018 -36.007746 2.748314 -0.091145 24.198198 -2.913860 -6.013477 -20.921715 -178.437400 0.000001 -20.137800
8.673106 16.796538 1.565854 16.846924 59.002931 32.960763 -12.172743 6.048905 0.472312 -9.374228 17.922780 -11.646968 -0.921344 1.981477 37.737677 0.651323 -9.111923 24.916210 -4.885000 -0.000000 -67.994200 7.833319 -1.882965 4.127062 18.323798 2.867578 -35.417982 2.765743 -0.231480 25.486391 -2.846557 -5.497960 -21.759495 -178.346900 0.000000 -19.989500
8.823767 16.792920 1.665018 16.378602 58.701309 32.292025 -12.216010 5.902558 0.330876 -8.624022 18.045607 -12.508657 -0.739142 2.070592 40.168732 0.787630 -7.242555 24.897942 -4.045199 0.000000 -64.009000 7.836674 -1.911800 3.910908 18.554782 2.462208 -34.594044 2.800619 -0.306622 26.252436 -2.788336 -5.033007 -22.511193 -178.277800 0.000000 -19.646900
8.968580 16.792395 1.768960 15.958710 58.401012 31.686054 -12.225330 5.731840 0.192869 -7.947176 18.017883 -13.397172 -0.567145 2.159033 42.506872 0.933967 -4.856846 24.525060 -2.916300 0.000001 -60.016800 7.845169 -1.931467 3.706222 18.771506 2.075158 -33.576848 2.843191 -0.323407 26.543137 -2.747362 -4.658137 -23.170743 -178.220100 0.000001 -19.234000
9.108357 16.794487 1.878073 15.628442 58.099152 31.196514 -12.199897 5.541840 0.074721 -7.381353 17.793975 -14.319026 -0.407392 2.244335 44.715211 1.092058 -2.117869 23.810523 -1.611799 -0.000000 -56.086900 7.865318 -1.938381 3.521049 18.937793 1.730821 -32.423889 2.883188 -0.291362 26.430827 -2.726845 -4.398075 -23.727904 -178.166301 -0.000000 -18.863900
9.244062 16.798948 1.992290 15.411404 57.794979 30.855693 -12.141935 5.338439 -0.011032 -6.947350 17.347324 -15.275920 -0.261679 2.323323 46.758035 1.261716 0.787768 22.793433 -0.259900 0.000000 -52.276800 7.902422 -1.930544 3.360314 19.027360 1.447797 -31.187235 2.911775 -0.221169 25.996828 -2.726161 -4.264507 -24.169556 -178.111400 -0.000000 -18.628200
9.376828 16.805708 2.111320 15.327000 57.486136 30.692184 -12.054217 5.128202 -0.053170 -6.662518 16.664250 -16.273010 -0.131244 2.391957 48.602867 1.439929 3.683122 21.535649 1.023600 0.000000 -48.664400 7.962158 -1.907778 3.228046 19.017650 1.234474 -29.929225 2.922154 -0.125257 25.336416 -2.740771 -4.250136 -24.485452 -178.055000 0.000000 -18.576200
9.507666 16.814960 2.234232 15.359345 57.170406 30.692496 -11.942839 4.916214 -0.048622 -6.513407 15.759907 -17.303742 -0.017218 2.447428 50.224006 1.620423 6.410873 20.104501 2.147200 -0.000000 -45.291800 8.044992 -1.872643 3.124744 18.907174 1.099459 -28.685597 2.910702 -0.014883 24.530480 -2.765534 -4.343850 -24.663755 -177.999300 0.000000 -18.696100
9.637689 16.826980 2.360110 15.493449 56.842374 30.845357 -11.812796 4.707032 0.004025 -6.488025 14.660583 -18.365731 0.079503 2.487091 51.599635 1.795291 8.859037 18.571638 3.057800 0.000000 -42.262500 8.151316 -1.828857 3.049920 18.697167 1.038780 -27.498964 2.876884 0.098515 23.662382 -2.792710 -4.516538 -24.699871 -177.950800 0.000000 -18.922700
9.767703 16.842103 2.487773 15.692786 56.495007 31.110604 -11.670111 4.503660 0.099413 -6.556297 13.414310 -19.446652 0.157770 2.510297 52.715386 1.955463 10.951169 16.989777 3.731700 0.000000 -39.607800 8.277562 -1.781429 2.999812 18.403389 1.043836 -26.386331 2.823586 0.206228 22.792013 -2.814758 -4.735303 -24.593032 -177.917301 -0.000000 -19.158101
9.898301 16.860686 2.616103 15.915483 56.119912 31.439626 -11.520242 4.307887 0.228881 -6.684928 12.077489 -20.530609 0.216401 2.517530 53.559823 2.093288 12.651023 15.403427 4.172700 -0.000000 -37.421600 8.418381 -1.735336 2.968407 18.048433 1.099603 -25.349163 2.756146 0.302472 21.957895 -2.824502 -4.963824 -24.348140 -177.906600 0.000000 -19.309300
10.029735 16.882949 2.744170 16.120599 55.709029 31.778771 -11.367305 4.121010 0.380415 -6.842822 10.713357 -21.599279 0.253806 2.510860 54.130793 2.201985 13.948234 13.818428 4.395700 -0.000000 -35.559300 8.568138 -1.695131 2.947956 17.657026 1.184226 -24.372642 2.681391 0.384512 21.175163 -2.815443 -5.165323 -23.974995 -177.925300 -0.000000 -19.297000
10.162041 16.908983 2.871327 16.271335 55.255426 32.079228 -11.214360 3.943240 0.542170 -7.005108 9.377100 -22.633834 0.268928 2.492147 54.425667 2.279187 14.865478 12.251698 4.433000 0.000000 -34.061700 8.721038 -1.664017 2.930508 17.253833 1.276671 -23.431585 2.606241 0.452851 20.435870 -2.783038 -5.309751 -23.485700 -177.976900 0.000000 -19.085300
10.294903 16.938626 2.997327 16.343873 54.754154 32.303739 -11.062440 3.774397 0.702999 -7.157098 8.113812 -23.617154 0.260926 2.463155 54.447398 2.325263 15.444298 10.704810 4.321000 -0.000000 -32.838200 8.873257 -1.643898 2.908737 16.857903 1.356064 -22.495267 2.536411 0.509901 19.716848 -2.724535 -5.375378 -22.892261 -178.062000 -0.000000 -18.664800
10.428020 16.971566 3.122137 16.320696 54.202946 32.428060 -10.912028 3.612999 0.855294 -7.290454 6.950265 -24.539588 0.230231 2.424603 54.200174 2.344823 15.747566 9.200601 4.105200 -0.000000 -31.967300 9.020948 -1.635497 2.879016 16.485685 1.414454 -21.535094 2.475633 0.559980 18.982023 -2.640713 -5.357151 -22.203724 -178.177200 0.000000 -18.068900
10.560854 17.007175 3.246115 16.206550 53.600439 32.447431 -10.760405 3.458314 0.993324 -7.411552 5.898703 -25.391097 0.177352 2.376751 53.695155 2.343506 15.841486 7.732958 3.821700 -0.000001 -31.208400 9.165495 -1.638143 2.837911 16.138169 1.439689 -20.528116 2.425247 0.606106 18.202368 -2.532235 -5.252264 -21.426709 -178.318900 -0.000001 -17.315400
10.693093 17.044691 3.369746 16.007295 52.947545 32.370459 -10.605802 3.308380 1.117239 -7.525752 4.951288 -26.174550 0.104633 2.318628 52.942784 2.330003 15.801833 6.328735 3.511000 0.000000 -30.590000 9.306772 -1.650884 2.787905 15.816518 1.439012 -19.465013 2.384422 0.651775 17.349558 -2.403254 -5.075084 -20.562157 -178.480900 -0.000000 -16.452800
10.824486 17.083253 3.493551 15.738719 52.245791 32.215364 -10.445381 3.162020 1.229456 -7.642895 4.089855 -26.893515 0.014844 2.249188 51.958308 2.312803 15.697235 4.997896 3.200900 0.000000 -29.978400 9.447212 -1.672378 2.731889 15.513257 1.418836 -18.345941 2.350818 0.698259 16.411607 -2.257350 -4.839711 -19.607903 -178.657900 0.000000 -15.512100
10.955044 17.121975 3.618012 15.418660 51.497716 32.006559 -10.276909 3.018450 1.335533 -7.771125 3.287416 -27.555955 -0.088417 2.167220 50.757829 2.300194 15.588324 3.754707 2.912700 -0.000000 -29.311900 9.589162 -1.701443 2.674361 15.218835 1.389627 -17.183277 2.321391 0.745276 15.391068 -2.098085 -4.560933 -18.559264 -178.845100 -0.000000 -14.517800
11.085008 17.160027 3.743453 15.062993 50.706848 31.768649 -10.099355 2.877477 1.442716 -7.914473 2.515919 -28.173970 -0.201345 2.071947 49.360901 2.298986 15.520703 2.606703 2.657900 0.000000 -28.538900 9.734109 -1.737649 2.620301 14.924717 1.362091 -15.999112 2.293262 0.790785 14.306962 -1.928447 -4.250768 -17.410601 -179.038500 0.000000 -13.477900
11.214877 17.196749 3.870019 14.683547 49.878459 31.523587 -9.913294 2.739428 1.558833 -8.072192 1.751905 -28.763452 -0.320223 1.963146 47.789235 2.314098 15.523652 1.558143 2.441699 0.000000 -27.672400 9.881880 -1.781339 2.574557 14.626028 1.345385 -14.824403 2.264453 0.831425 13.193060 -1.750928 -3.917149 -16.158508 -179.234300 -0.000000 -12.382300
11.345178 17.231671 3.997658 14.290024 49.019068 31.284383 -9.720138 2.605476 1.688467 -8.241580 0.985108 -29.334332 -0.442638 1.841524 46.066183 2.347519 15.605210 0.599234 2.260400 -0.000000 -26.694800 10.031878 -1.833082 2.538536 14.319065 1.340534 -13.684389 2.233864 0.862797 12.090944 -1.567093 -3.562001 -14.802647 -179.428600 -0.000000 -11.191600
11.476791 17.264519 4.126204 13.883260 48.138300 31.061852 -9.523854 2.476525 1.836439 -8.415753 0.217733 -29.909727 -0.566733 1.708232 44.217349 2.398907 15.756467 -0.275633 2.109400 -0.000000 -25.725200 10.179883 -1.894540 2.515622 14.009368 1.350751 -12.614711 2.201922 0.881054 11.049071 -1.379570 -3.188051 -13.350055 -179.616500 -0.000000 -9.864600
11.610394 17.295176 4.255454 13.463699 47.247849 30.857967 -9.328648 2.354051 2.002396 -8.591246 -0.529314 -30.505230 -0.692716 1.565049 42.266585 2.464619 15.948641 -1.081118 1.979300 0.000000 -24.860400 10.321574 -1.966861 2.506047 13.704119 1.372934 -11.638682 2.169534 0.883038 10.111695 -1.191358 -2.797479 -11.816020 -179.792200 0.000000 -8.363700
